<svg id="Layer_1" data-name="Layer 1" xmlns="http://www.w3.org/2000/svg" viewBox="0 0 157.99 37.5"><defs><style>.cls-1{fill:#fff;}</style></defs><path class="cls-1" d="M72.8,152.41H71.28v8.82H72.8a1.83,1.83,0,0,0,1.5-.51,2.27,2.27,0,0,0,.4-1.42v-5a2.08,2.08,0,0,0-.43-1.41A1.87,1.87,0,0,0,72.8,152.41Z" transform="translate(0 -142)"/><path class="cls-1" d="M101,152a1.49,1.49,0,0,0-1.37.58,2.8,2.8,0,0,0-.36,1.5v15a2.8,2.8,0,0,0,.36,1.5,1.91,1.91,0,0,0,2.75,0,2.81,2.81,0,0,0,.36-1.5V154a2.81,2.81,0,0,0-.36-1.5A1.49,1.49,0,0,0,101,152Z" transform="translate(0 -142)"/><path class="cls-1" d="M61.92,152a1.49,1.49,0,0,0-1.38.58,2.8,2.8,0,0,0-.36,1.5v15a2.8,2.8,0,0,0,.36,1.5,1.91,1.91,0,0,0,2.75,0,2.81,2.81,0,0,0,.36-1.5V154a2.81,2.81,0,0,0-.36-1.5A1.49,1.49,0,0,0,61.92,152Z" transform="translate(0 -142)"/><path class="cls-1" d="M0,142v37.5H158V142Zm43.52,14.48h-2V154a3,3,0,0,0-.35-1.47,1.42,1.42,0,0,0-1.36-.62,1.45,1.45,0,0,0-1.37.58,3,3,0,0,0-.33,1.5v1.87a4.86,4.86,0,0,0,.4,2.15,4.18,4.18,0,0,0,1,1.31,11.47,11.47,0,0,0,1.31,1,5.64,5.64,0,0,1,2.31,3,9.09,9.09,0,0,1,.4,3V169a7.21,7.21,0,0,1-.16,1.56,3,3,0,0,1-.57,1.23,2.63,2.63,0,0,1-1.14.81,6,6,0,0,1-3.67,0,2.62,2.62,0,0,1-1.14-.81,3,3,0,0,1-.57-1.23,7.21,7.21,0,0,1-.16-1.56v-2.75h2V169a2.91,2.91,0,0,0,.36,1.5,1.82,1.82,0,0,0,2.72,0,3.11,3.11,0,0,0,.33-1.52v-2.69a6.8,6.8,0,0,0-.4-2.56,4.93,4.93,0,0,0-1-1.56,7,7,0,0,0-1.31-1.06,6.91,6.91,0,0,1-1.31-1.06,4.91,4.91,0,0,1-1-1.56,6.89,6.89,0,0,1-.4-2.59V154a7.22,7.22,0,0,1,.16-1.56,3,3,0,0,1,.57-1.23,2.62,2.62,0,0,1,1.14-.81,6,6,0,0,1,3.67,0,2.63,2.63,0,0,1,1.14.81,3,3,0,0,1,.57,1.23,7.22,7.22,0,0,1,.16,1.56Zm11,16.12h-2V162.36H49v10.24H47V150.48h2v10.05h3.57V150.48h2Zm11.1-3.54a6.6,6.6,0,0,1-.17,1.57,2.93,2.93,0,0,1-.6,1.22,2.82,2.82,0,0,1-1.15.79,5.89,5.89,0,0,1-3.62,0,2.83,2.83,0,0,1-1.14-.79,2.94,2.94,0,0,1-.6-1.22,6.58,6.58,0,0,1-.17-1.57V154a6.58,6.58,0,0,1,.17-1.56,3.07,3.07,0,0,1,.6-1.23,2.76,2.76,0,0,1,1.14-.81,5.89,5.89,0,0,1,3.62,0,2.75,2.75,0,0,1,1.15.81,3.07,3.07,0,0,1,.6,1.23,6.6,6.6,0,0,1,.17,1.56Zm11-9.77a4.12,4.12,0,0,1-.87,2.7,3.67,3.67,0,0,1-3,1.06H71.28v9.55h-2V150.48h3.6a5.17,5.17,0,0,1,1.87.29,2.9,2.9,0,0,1,1.15.77,2.82,2.82,0,0,1,.6,1.2,6.59,6.59,0,0,1,.17,1.57Zm17,13.31h-2l-4.65-17.26q.06,2.56.13,5t.06,5.12v7.15H85.38V150.48h2L92,167.77q-.06-2.62-.13-5.06t-.06-5.06v-7.18h1.93Zm11-3.54a6.58,6.58,0,0,1-.17,1.57,2.94,2.94,0,0,1-.6,1.22,2.81,2.81,0,0,1-1.15.79,5.89,5.89,0,0,1-3.62,0,2.83,2.83,0,0,1-1.14-.79,2.92,2.92,0,0,1-.6-1.22,6.58,6.58,0,0,1-.17-1.57V154a6.58,6.58,0,0,1,.17-1.56,3.05,3.05,0,0,1,.6-1.23,2.76,2.76,0,0,1,1.14-.81,5.89,5.89,0,0,1,3.62,0,2.74,2.74,0,0,1,1.15.81,3.08,3.08,0,0,1,.6,1.23,6.58,6.58,0,0,1,.17,1.56Zm14.73,3.54h-2.28l-2.34-18.15-2.31,18.15h-2.31l-2.81-22.13h2l2,18.31,2.4-18.31h2.09l2.4,18.31,2-18.31h2Z" transform="translate(0 -142)"/></svg>