<!-- Generator: Adobe Illustrator 19.2.1, SVG Export Plug-In  -->
<svg version="1.1"
	 xmlns="http://www.w3.org/2000/svg" xmlns:xlink="http://www.w3.org/1999/xlink" xmlns:a="http://ns.adobe.com/AdobeSVGViewerExtensions/3.0/"
	 x="0px" y="0px" width="114.9px" height="27.7px" viewBox="0 0 114.9 27.7" style="enable-background:new 0 0 114.9 27.7;"
	 xml:space="preserve">
<style type="text/css">
	.st0{fill:#030405;}
</style>
<defs>
</defs>
<g>
	<g>
		<path class="st0" d="M3,14.6C5.1,14.5,6,14.1,8,14c0.4,0,0.6,0,0.6-0.2c0-0.1-0.2-0.1-0.6-0.2c-2-0.1-2.9-0.5-4.9-0.6
			C1,13,0,13.5,0,13.8C0,14.2,1,14.7,3,14.6z M24.6,13.1c-2,0.1-2.9,0.5-4.9,0.6c-0.4,0-0.6,0-0.6,0.2c0,0.1,0.2,0.1,0.6,0.2
			c2,0.1,2.9,0.5,4.9,0.6c2.1,0.1,3-0.4,3-0.7C27.7,13.5,26.7,13,24.6,13.1z M8.5,16.2C8.8,16.1,9,16,9,15.9c-0.1-0.1-0.3,0-0.6,0.1
			c-1.9,0.7-2.9,0.6-4.8,1.3c-1.9,0.7-2.6,1.6-2.5,1.9c0.1,0.3,1.2,0.4,3.1-0.5C6,17.8,6.7,17.1,8.5,16.2z M19.2,11.4
			c-0.4,0.2-0.6,0.3-0.5,0.4c0.1,0.1,0.3,0,0.6-0.1c1.9-0.6,2.9-0.7,4.8-1.3c1.9-0.7,2.6-1.5,2.5-1.8c-0.1-0.3-1.2-0.4-3.1,0.4
			C21.7,9.8,21,10.6,19.2,11.4z M10.1,17.6c-0.1-0.1-0.3,0.1-0.6,0.3c-1.5,1.3-2.4,1.7-3.9,3.1c-1.5,1.4-1.8,2.4-1.6,2.7
			c0.2,0.2,1.3-0.1,2.7-1.6c1.4-1.5,1.8-2.4,3.1-3.9C10.1,17.8,10.2,17.6,10.1,17.6z M17.6,10.1c0.1,0.1,0.3-0.1,0.6-0.3
			c1.5-1.3,2.4-1.7,3.9-3.1c1.5-1.4,1.9-2.4,1.6-2.7c-0.2-0.2-1.3,0.1-2.7,1.6c-1.4,1.5-1.7,2.4-3.1,3.9C17.6,9.9,17.5,10,17.6,10.1
			z M11.5,19.2C10.6,21,9.8,21.7,9,23.5c-0.9,1.9-0.8,3-0.4,3.1c0.3,0.1,1.1-0.6,1.8-2.5c0.7-1.9,0.7-2.9,1.3-4.8
			c0.1-0.4,0.2-0.6,0.1-0.6C11.7,18.6,11.6,18.9,11.5,19.2z M16.2,8.5c0.9-1.8,1.6-2.5,2.4-4.3c0.9-1.9,0.8-2.9,0.5-3.1
			c-0.3-0.1-1.1,0.6-1.9,2.5c-0.7,1.9-0.7,2.9-1.3,4.8c-0.1,0.4-0.2,0.6-0.1,0.6C16,9,16.1,8.8,16.2,8.5z M14,19.7
			c0-0.4,0-0.6-0.2-0.6c-0.1,0-0.1,0.2-0.2,0.6c-0.1,2-0.5,2.9-0.6,4.9c-0.1,2.1,0.4,3,0.8,3c0.3,0,0.8-1,0.7-3
			C14.5,22.6,14.1,21.7,14,19.7z M13.8,0c-0.3,0-0.8,1-0.8,3c0.1,2,0.5,2.9,0.6,4.9c0,0.4,0,0.6,0.2,0.6C14,8.6,14,8.4,14,8
			c0.1-2,0.5-2.9,0.6-4.9C14.7,1,14.2,0,13.8,0z M16.2,19.2c-0.2-0.4-0.3-0.6-0.4-0.5c-0.1,0.1,0,0.3,0.1,0.6
			c0.7,1.9,0.6,2.9,1.3,4.8c0.7,1.9,1.6,2.6,1.9,2.5c0.3-0.1,0.4-1.2-0.5-3.1C17.8,21.7,17.1,21,16.2,19.2z M10.4,3.6
			C9.7,1.6,8.9,0.9,8.6,1C8.2,1.2,8.2,2.3,9,4.1c0.8,1.9,1.6,2.5,2.4,4.3C11.6,8.8,11.7,9,11.8,9c0.1-0.1,0-0.3-0.1-0.6
			C11.1,6.5,11.1,5.5,10.4,3.6z M22,20.9c-1.5-1.4-2.4-1.8-3.9-3.1c-0.3-0.3-0.5-0.4-0.6-0.3c-0.1,0.1,0.1,0.3,0.3,0.6
			c1.3,1.5,1.7,2.4,3,3.9c1.4,1.5,2.4,1.8,2.7,1.6C23.9,23.4,23.5,22.3,22,20.9z M9.6,9.8c0.3,0.3,0.5,0.4,0.6,0.3
			c0.1-0.1-0.1-0.3-0.3-0.6C8.5,8.1,8.1,7.2,6.7,5.7C5.3,4.1,4.3,3.8,4.1,4C3.8,4.3,4.2,5.3,5.7,6.7C7.1,8.1,8.1,8.5,9.6,9.8z
			 M24.1,17.3c-1.9-0.7-2.9-0.7-4.8-1.3c-0.4-0.1-0.6-0.2-0.6-0.1c-0.1,0.1,0.2,0.2,0.5,0.4c1.8,0.9,2.5,1.6,4.3,2.4
			c1.9,0.9,3,0.8,3.1,0.4C26.7,18.8,26.1,18,24.1,17.3z M3.6,10.4c1.9,0.7,2.9,0.7,4.8,1.3c0.4,0.1,0.6,0.2,0.6,0.1
			c0.1-0.1-0.2-0.2-0.5-0.4C6.7,10.6,6,9.9,4.1,9C2.3,8.1,1.2,8.2,1.1,8.5C0.9,8.8,1.6,9.7,3.6,10.4z M52,14.8
			c0-1.7-0.1-2.2-0.5-2.8c-1-1.7-3.2-2.2-5-2.2c-1.7,0-3.3,0.4-4.7,1c-0.2,0.1-0.4,0.3-0.4,0.5c0,0.1,0,0.1,0,0.2l0.5,1.2
			c0.1,0.2,0.3,0.4,0.6,0.3c0.1,0,0.4-0.2,0.4-0.2c0.8-0.3,1.6-0.6,2.6-0.6c1.2,0,2,0.3,2.3,0.9c0.3,0.4,0.3,0.8,0.3,1.4
			c-4.6,1.5-7.6,2.6-7.6,5.6c0,2,1.4,3.8,3.8,3.8c1.7,0,3.1-0.8,4-2.4l0.1,1.3c0,0.1,0,0.1,0,0.2c0.1,0.4,0.5,0.7,0.9,0.7h2
			c0.5,0,0.9-0.4,0.9-0.9c0,0-0.2-3.1-0.2-4.2V14.8z M47.8,20c-0.3,0.8-0.9,1.4-1.9,1.5c-0.7,0.1-1.7-0.4-1.7-1.8
			c0-1.7,1.1-2.3,3.9-3.4v0.8C48.2,18.2,48.2,19.1,47.8,20z M89.9,9.7c-3.6,0-6.2,2.8-6.2,7.1c0,4.3,2.5,7.2,6.5,7.2
			c1.7,0,3.1-0.5,4.1-1c0,0,0,0,0,0c0.5-0.3,0.6-0.6,0.3-1.1c-0.1-0.1-0.3-0.6-0.3-0.6c-0.3-0.5-0.6-0.6-1.1-0.3
			c-0.7,0.3-1.4,0.6-2.2,0.6c-2.3,0-3.3-2.1-3.1-4.6h6.9c0.6,0,0.8-0.2,0.8-0.8C95.7,14,95,9.7,89.9,9.7z M88,14.9
			c0.1-1.5,0.7-3,2-3c1.4,0,1.8,1.6,1.8,3H88z M112.2,15.5l-1.2-0.8c-0.8-0.5-1.4-1.2-1.4-1.6c0-0.6,0.5-1.1,1.5-1.1
			c0.6,0,1,0.1,1.6,0.3c0.5,0.2,0.8,0.1,1-0.4c0.1-0.3,0.3-0.5,0.3-0.5c0.2-0.5,0.2-0.8-0.4-1.1c-1.2-0.4-2.3-0.5-2.8-0.5
			c-3.1,0-4.9,1.9-4.9,4c0,1.8,1,2.9,2.3,3.8l1.1,0.7c0.8,0.5,2,1.1,2,2.1c0,0.9-0.9,1.3-1.6,1.3c-0.9,0-1.5-0.2-2.2-0.5
			c-0.5-0.2-0.9-0.2-1.1,0.4c-0.1,0.2-0.3,0.6-0.3,0.6c-0.3,0.6-0.2,0.9,0.4,1.1c0.1,0,0.1,0,0.1,0c0.8,0.3,1.9,0.6,3.2,0.6
			c3.2,0,5-2,5-4.3C114.9,17.6,113.6,16.4,112.2,15.5z M61.8,9.8c-0.3-0.1-0.5-0.1-0.7-0.1c-1.8,0-3,1.9-3.5,3.6l-0.1-1.3v-1.3
			c0-0.6-0.3-0.8-0.8-0.8h-2c-0.5,0-0.9,0.4-0.9,0.8l0,12.1c0,0.6,0.4,0.9,0.9,0.9H57c0.5,0,0.9-0.3,0.9-0.9l0-3.9
			c0-1.1-0.1-2.9,0.3-3.9c0.5-1.3,1.6-1.7,2.3-1.7c0.2,0,0.6,0.1,0.6,0.1c0.3,0,0.5-0.2,0.6-0.5l0.4-2.2c0,0,0-0.1,0-0.2
			C62.3,10.2,62.1,9.9,61.8,9.8z M78.3,9.7c-2,0-3,1.2-3.6,2.4c-0.6-1.7-2.3-2.4-3.7-2.4c-1.8,0-3.1,1-3.8,2.4L67.1,11v0
			c0-0.6-0.4-1-0.8-1h-2.1c-0.5,0-0.9,0.3-0.9,0.9l0,12.1c0,0.5,0.4,0.8,0.8,0.8h2.4c0.5,0,0.8-0.3,0.8-0.8l0-5.9
			c0-1.2-0.1-4.4,2-4.4c1.6,0,1.5,1.7,1.5,2.8l0,7.6c0,0.6,0.4,0.8,0.9,0.8h2.4c0.5,0,0.8-0.3,0.8-0.8v-6c0-1.4-0.1-4.4,2-4.4
			c1.6,0,1.4,1.9,1.4,2.8v7.6c0,0.6,0.4,0.8,0.9,0.8h2.5c0.5,0,0.8-0.3,0.8-0.8l0-8c0-0.8,0-2.3-0.5-3.3
			C81.3,10.6,80.1,9.7,78.3,9.7z M105,9.8c-0.3-0.1-0.5-0.1-0.7-0.1c-1.8,0-3,1.9-3.5,3.6l-0.1-1.3v-1.3c0-0.6-0.3-0.8-0.8-0.8h-2
			c-0.5,0-0.8,0.4-0.8,0.8v12.1c0,0.6,0.4,0.9,0.8,0.9h2.3c0.5,0,0.9-0.3,0.9-0.9l0-3.9c0-1.1,0-2.9,0.4-3.9
			c0.5-1.3,1.6-1.7,2.3-1.7c0.2,0,0.6,0.1,0.6,0.1c0.3,0,0.5-0.2,0.6-0.5l0.4-2.2c0,0,0-0.1,0-0.2C105.4,10.2,105.3,9.9,105,9.8z
			 M40.7,13c0-0.5-0.3-0.8-0.8-0.8c0,0-3.7,0-3.7,0s0-4.8,0-4.8c0-0.5,0.3-0.8,0.8-0.8h4.2c0.5,0,0.7-0.4,0.8-0.8
			c0.1-0.4,0.1-0.8,0.2-1.2c0.1-0.5-0.3-0.8-0.8-0.8h-7.8c-1.4,0-1.9,0.6-1.9,1.9V23c0,0.5,0.3,0.8,0.8,0.8h2.9
			c0.6,0,0.8-0.2,0.8-0.8c0-0.3,0-8,0-8s3.5,0,3.7,0c0.5,0,0.8-0.3,0.8-0.8V13z"/>
	</g>
</g>
</svg>
