<svg id="Layer_1" data-name="Layer 1" xmlns="http://www.w3.org/2000/svg" xmlns:xlink="http://www.w3.org/1999/xlink" viewBox="0 0 207.36 16.76"><defs><style>.cls-1{fill:none;}.cls-2{fill:#fff;}.cls-3{clip-path:url(#clip-path);}</style><clipPath id="clip-path" transform="translate(0 0)"><rect class="cls-1" width="207.36" height="16.76"/></clipPath></defs><polygon class="cls-2" points="0 0.18 0 16.58 14.95 16.58 14.95 14.77 2.22 14.77 2.22 0.18 0 0.18"/><rect class="cls-2" x="17.39" y="0.18" width="2.22" height="16.4"/><polygon class="cls-2" points="42.22 0.18 42.22 14.59 27.2 0.18 23.89 0.18 23.89 16.58 26.11 16.58 26.11 2.17 41.13 16.58 44.43 16.58 44.43 0.18 42.22 0.18"/><polygon class="cls-2" points="48.65 0.18 48.65 16.58 64.84 16.58 64.84 14.77 50.87 14.77 50.87 9.04 64.2 9.04 64.2 7.22 50.87 7.22 50.87 1.99 64.75 1.99 64.75 0.18 48.65 0.18"/><polygon class="cls-2" points="86.4 0.18 86.4 14.59 71.38 0.18 68.08 0.18 68.08 16.58 70.3 16.58 70.3 2.17 85.31 16.58 88.62 16.58 88.62 0.18 86.4 0.18"/><polygon class="cls-2" points="107.98 0.18 107.98 6.02 97.38 6.02 97.38 0.18 92.35 0.18 92.35 16.58 97.38 16.58 97.38 10.37 107.98 10.37 107.98 16.58 113.01 16.58 113.01 0.18 107.98 0.18"/><g class="cls-3"><path class="cls-2" d="M116,5.93c0-4.8,2.7-5.93,7.22-5.93h8.06c4.53,0,7.23,1.13,7.23,5.93v4.89c0,4.8-2.7,5.93-7.23,5.93h-8.06c-4.53,0-7.22-1.13-7.22-5.93Zm5.17,3.33c0,2.38.5,3.28,2.88,3.28h6.43c2.38,0,2.88-.91,2.88-3.28V7.5c0-2-.5-3.28-3.15-3.28h-5.89c-2.65,0-3.15,1.25-3.15,3.28Z" transform="translate(0 0)"/><path class="cls-2" d="M141.59.18h5V9.65c0,2.08.75,2.9,2.81,2.9h5c2.06,0,2.81-.81,2.81-2.9V.18h5V10.73c0,4.08-2.11,6-6.73,6h-7.2c-4.62,0-6.73-1.95-6.73-6Z" transform="translate(0 0)"/><path class="cls-2" d="M165.35,11.21h5c0,1.74.72,1.88,2.17,1.88h6.16c1.06,0,2.15-.11,2.15-1.38,0-1.43-.59-1.52-7.07-1.52-7.56,0-8.43-.91-8.43-4.94,0-3,.27-5.26,6.61-5.26h7c5.8,0,6.34,2,6.34,4.85v.52h-5c0-1.2-.13-1.7-2.45-1.7H172.3c-1.13,0-1.9.39-1.9,1.27,0,1.43.61,1.47,6,1.45,7.81,0,9.62.45,9.62,5.23,0,4.42-1.49,5.14-8.18,5.14h-6.09c-4.57,0-6.41-.86-6.41-4.42Z" transform="translate(0 0)"/><polygon class="cls-2" points="189.13 0.18 207.06 0.18 207.06 3.99 194.15 3.99 194.15 6.61 206.38 6.61 206.38 10.01 194.15 10.01 194.15 12.64 207.36 12.64 207.36 16.58 189.13 16.58 189.13 0.18"/></g></svg>