<?xml version="1.0" encoding="utf-8"?>
<!-- Generator: Adobe Illustrator 20.0.0, SVG Export Plug-In . SVG Version: 6.00 Build 0)  -->
<svg version="1.1" id="Layer_1" xmlns="http://www.w3.org/2000/svg" xmlns:xlink="http://www.w3.org/1999/xlink" x="0px" y="0px"
	 viewBox="0 0 256 19.3" style="enable-background:new 0 0 256 19.3;" xml:space="preserve">
<style type="text/css">
	.st0{fill:#FFFFFF;}
</style>
<path class="st0" d="M25.3,8.8V5.5c0-0.4,0.2-0.6,0.5-0.6h2.6c0,0,0.7,0.1,0.8-0.3c0.1-0.4,0.2-0.8,0.2-1.1c0-0.2-0.1-0.5-0.7-0.5
	h-5.5c-0.9,0-1.1,0.7-1.1,1.6v11.7c0,0.4,0.4,0.5,0.5,0.5h2.1c0.3,0,0.4-0.3,0.4-0.5v-5.6H28c0.4,0,0.5-0.4,0.5-0.5V9.3
	c0-0.4-0.3-0.5-0.5-0.5H25.3z"/>
<path class="st0" d="M36.3,13.3c0-0.3,0-2.7,0-3.2c0-0.5-0.1-1.4-0.8-2.1c-0.8-0.7-2-0.9-3.3-0.9c-1.3,0-2.5,0.5-2.8,0.7
	C29,7.9,28.9,8.1,29,8.4c0.1,0.2,0.3,0.7,0.3,0.9c0.1,0.1,0.2,0.2,0.6,0.1c0.3-0.1,1.5-0.6,2.5-0.3c1,0.3,1.1,0.9,1.1,1.5
	c0,0-2.7,0.8-3.7,1.5c-0.9,0.6-1.5,1.2-1.5,2.5c0,1.2,0.8,1.9,1.4,2.3c0.6,0.3,1.8,0.3,2.4,0.1c0.6-0.3,1.1-0.5,1.6-1.4
	c0,0.7,0,0.8,0,1c0,0.2,0.3,0.5,0.6,0.5c0.4,0,1.2,0,1.4,0c0.2,0,0.6-0.3,0.5-0.7C36.3,15.7,36.3,13.6,36.3,13.3 M32.3,15.3
	c-0.9,0.3-1.7-0.7-1.3-1.8c0.4-1.1,2.6-1.8,2.6-1.8C33.7,14.3,33.2,15,32.3,15.3"/>
<path class="st0" d="M40.1,9.7c0,0,0-1.5,0-1.8c0-0.4-0.3-0.5-0.6-0.5c-0.2,0-1.1,0-1.4,0s-0.5,0.4-0.5,0.6v8.4
	c0,0.3,0.2,0.6,0.6,0.6c0.4,0,1.2,0,1.6,0c0.4,0,0.6-0.4,0.6-0.5c0-0.2,0-3.6,0-3.9s0-1.6,0.7-2.2c0.6-0.6,1.4-0.5,1.6-0.5
	c0.2,0,0.4-0.2,0.4-0.3c0-0.1,0.3-1.4,0.3-1.7c0-0.3-0.1-0.5-0.5-0.5c-0.5,0-1,0-1.4,0.4C40.9,8,40.4,8.7,40.1,9.7"/>
<path class="st0" d="M70,9.7c0,0,0-1.5,0-1.8c0-0.4-0.3-0.5-0.6-0.5c-0.2,0-1.1,0-1.4,0c-0.4,0-0.5,0.4-0.5,0.6v8.4
	c0,0.3,0.2,0.6,0.6,0.6c0.4,0,1.2,0,1.6,0s0.6-0.4,0.6-0.5c0-0.2,0-3.6,0-3.9s0-1.6,0.7-2.2c0.6-0.6,1.4-0.5,1.6-0.5
	c0.2,0,0.4-0.2,0.4-0.3c0-0.1,0.3-1.4,0.3-1.7c0-0.3-0.1-0.5-0.5-0.5c-0.5,0-1,0-1.4,0.4C70.8,8,70.3,8.7,70,9.7"/>
<path class="st0" d="M44.6,7.3c-0.3,0-0.5,0.3-0.5,0.5v8.5c0,0.3,0.3,0.5,0.6,0.5h1.7c0.2,0,0.5-0.3,0.5-0.5c0-0.3,0-4.4,0-4.8
	c0-0.4,0.1-1.3,0.4-1.8c0.3-0.6,0.9-0.6,1-0.6c0.1,0,1-0.1,1,1.7c0,1.7,0,5.2,0,5.6s0.3,0.5,0.6,0.5s1.4,0,1.8,0
	c0.3,0,0.5-0.4,0.5-0.5c0-0.1,0-4.3,0-4.7s0.1-1.6,0.5-2.1c0.4-0.5,1.1-0.6,1.4-0.4c0.3,0.2,0.5,0.5,0.5,1c0,0.5,0,5.8,0,6.1
	c0,0.3,0.4,0.5,0.5,0.5c0.2,0,1.5,0,1.8,0c0.4,0,0.5-0.3,0.5-0.5c0-0.2,0-5.8,0-6.2c0-0.5-0.1-1.4-0.5-1.9c-0.4-0.6-1.2-1.1-2.4-1.1
	c-1.1,0-2,0.8-2.4,1.7c-0.4-0.8-1-1.7-2.7-1.7s-2.5,1.5-2.5,1.7c0,0,0-0.7-0.1-1c-0.1-0.3-0.3-0.5-0.5-0.5"/>
<path class="st0" d="M66.1,9.6c-0.3-0.9-1.2-2.4-3.6-2.5c-2.4,0-3.6,1.7-4.1,2.9c-0.4,1.2-0.5,3.3,0.3,4.7c0.8,1.4,2,2.1,3.4,2.2
	c1.4,0.1,2.5-0.3,2.9-0.5c0.4-0.2,0.9-0.3,0.8-0.8c-0.2-0.4-0.4-0.7-0.5-0.8c-0.1-0.1-0.4-0.1-0.6,0s-1.2,0.7-2.3,0.3
	c-1.1-0.4-1.5-1.9-1.4-3.1h4.9c0.3,0,0.4-0.2,0.5-0.4C66.5,11.5,66.4,10.5,66.1,9.6 M63.8,10.7h-2.7c0,0,0.2-2.1,1.4-2.1
	C63.8,8.6,63.8,10.4,63.8,10.7"/>
<path class="st0" d="M76.1,9.2c0.2-0.5,0.9-0.6,1.4-0.5c0.6,0.1,1,0.4,1.2,0.1c0.2-0.3,0.3-0.6,0.4-0.8c0.1-0.2,0.1-0.4-0.4-0.6
	c-0.5-0.2-2.2-0.6-3.6,0c-1.4,0.6-1.8,1.8-1.6,3c0.2,1.2,1.3,2,2.4,2.7c1.1,0.7,1.4,1.2,1,1.8c-0.4,0.7-2,0.3-2.2,0.1
	c-0.2-0.1-0.6-0.4-0.9,0.1c-0.3,0.4-0.3,0.7-0.3,0.8c0,0.1,0,0.3,0.3,0.5c0.3,0.1,2,0.9,3.9,0.2c1.9-0.7,2.2-2.7,1.7-3.8
	c-0.4-1.1-1.4-1.7-2.6-2.4C75.8,9.8,76.1,9.2,76.1,9.2"/>
<path class="st0" d="M9.1,17.1c0-0.8,0.2-1.6,0.3-2.3c0.1-0.8,0.1-1.4,0.2-1.4c0.2,0,0.1,0.6,0.2,1.4c0.1,0.7,0.4,1.5,0.4,2.3
	c0,1.7-0.2,2.3-0.5,2.3C9.4,19.4,9.1,18.7,9.1,17.1"/>
<path class="st0" d="M10.2,2.4c0,0.8-0.2,1.6-0.3,2.3C9.8,5.5,9.8,6,9.6,6S9.6,5.4,9.5,4.6C9.4,3.9,9.1,3.1,9.1,2.4
	c0-1.7,0.2-2.3,0.5-2.3C9.9,0.1,10.2,0.7,10.2,2.4"/>
<path class="st0" d="M17,10.3c-0.8,0-1.6-0.2-2.3-0.3c-0.8-0.1-1.4-0.1-1.4-0.2c0-0.2,0.6-0.1,1.4-0.2c0.7-0.1,1.5-0.4,2.3-0.4
	c1.7,0,2.3,0.2,2.3,0.5S18.7,10.3,17,10.3"/>
<path class="st0" d="M2.3,9.2c0.8,0,1.6,0.2,2.3,0.3C5.4,9.6,6,9.6,6,9.7c0,0.2-0.6,0.1-1.4,0.2C3.9,10,3,10.3,2.3,10.3
	C0.6,10.3,0,10,0,9.7C0,9.4,0.6,9.2,2.3,9.2"/>
<path class="st0" d="M16.7,7.4C16,7.7,15.1,7.8,14.4,8c-0.8,0.2-1.3,0.5-1.4,0.3C13,8.2,13.6,8,14.3,7.6c0.6-0.3,1.3-0.9,2-1.2
	c1.5-0.6,2.2-0.7,2.3-0.4C18.7,6.3,18.2,6.8,16.7,7.4"/>
<path class="st0" d="M2.6,12c0.7-0.3,1.6-0.4,2.2-0.6c0.8-0.2,1.3-0.5,1.4-0.3c0.1,0.1-0.5,0.3-1.2,0.7c-0.6,0.3-1.3,0.9-2,1.2
	c-1.5,0.6-2.2,0.7-2.3,0.4C0.6,13.1,1.1,12.7,2.6,12"/>
<path class="st0" d="M15.2,4.9c-0.5,0.5-1.3,1-1.9,1.4c-0.6,0.5-1,1-1.1,0.8C12.1,7,12.6,6.6,13.1,6c0.4-0.6,0.8-1.3,1.4-1.9
	c1.2-1.2,1.8-1.5,2-1.2C16.7,3.1,16.4,3.7,15.2,4.9"/>
<path class="st0" d="M4.1,14.6c0.5-0.5,1.3-1,1.9-1.4c0.6-0.5,1-1,1.1-0.8c0.1,0.1-0.4,0.5-0.9,1.1c-0.4,0.5-0.8,1.3-1.4,1.9
	c-1.2,1.2-1.8,1.5-2,1.2C2.6,16.3,2.9,15.7,4.1,14.6"/>
<path class="st0" d="M13,3.1c-0.3,0.7-0.8,1.4-1.2,2c-0.4,0.7-0.6,1.3-0.7,1.2c-0.1-0.1,0.2-0.6,0.4-1.4c0.2-0.7,0.2-1.5,0.5-2.2
	c0.6-1.5,1.1-2,1.4-1.9C13.6,0.9,13.6,1.6,13,3.1"/>
<path class="st0" d="M6.3,16.3c0.3-0.7,0.8-1.4,1.2-2c0.4-0.7,0.6-1.3,0.7-1.2c0.1,0.1-0.2,0.6-0.4,1.4c-0.2,0.7-0.2,1.5-0.5,2.2
	c-0.6,1.5-1.1,2-1.4,1.9C5.7,18.5,5.7,17.9,6.3,16.3"/>
<path class="st0" d="M7.3,2.7C7.6,3.4,7.7,4.3,7.9,5c0.2,0.8,0.5,1.3,0.3,1.4C8.1,6.4,7.9,5.8,7.5,5.1c-0.3-0.6-0.9-1.3-1.2-2
	C5.7,1.6,5.7,0.9,5.9,0.8C6.2,0.7,6.7,1.2,7.3,2.7"/>
<path class="st0" d="M12,16.7c-0.3-0.7-0.4-1.6-0.6-2.2c-0.2-0.8-0.5-1.3-0.3-1.4c0.1-0.1,0.3,0.5,0.7,1.2c0.3,0.6,0.9,1.3,1.2,2
	c0.6,1.5,0.7,2.2,0.4,2.3C13.1,18.8,12.6,18.3,12,16.7"/>
<path class="st0" d="M4.8,4.1c0.5,0.5,1,1.3,1.4,1.9c0.5,0.6,1,1,0.8,1.1C6.9,7.2,6.5,6.7,5.9,6.2C5.4,5.8,4.6,5.4,4.1,4.9
	c-1.2-1.2-1.5-1.8-1.2-2C3,2.7,3.6,3,4.8,4.1"/>
<path class="st0" d="M14.5,15.3c-0.5-0.5-1-1.3-1.4-1.9c-0.5-0.6-1-1-0.8-1.1c0.1-0.1,0.5,0.4,1.1,0.9c0.6,0.4,1.3,0.8,1.9,1.4
	c1.2,1.2,1.5,1.8,1.2,2C16.3,16.8,15.7,16.5,14.5,15.3"/>
<path class="st0" d="M3,6.4c0.7,0.3,1.4,0.8,2,1.2C5.8,8,6.3,8.2,6.3,8.3C6.2,8.5,5.6,8.2,4.9,7.9C4.2,7.8,3.3,7.7,2.6,7.4
	C1.1,6.8,0.6,6.3,0.7,6C0.8,5.7,1.5,5.8,3,6.4"/>
<path class="st0" d="M16.3,13c-0.7-0.3-1.4-0.8-2-1.2c-0.7-0.4-1.3-0.6-1.2-0.7c0.1-0.1,0.6,0.2,1.4,0.4c0.7,0.2,1.5,0.2,2.2,0.5
	c1.5,0.6,2,1.1,1.9,1.4C18.5,13.7,17.8,13.7,16.3,13"/>
<polygon class="st0" points="93.5,7.3 94.3,7.3 90.9,12.8 90.9,16.9 90.1,16.9 90.1,12.8 86.6,7.3 87.5,7.3 90.5,12 "/>
<path class="st0" d="M99,17c-2.4,0-4.2-2-4.2-4.9c0-2.9,1.8-4.9,4.2-4.9c2.4,0,4.2,2,4.2,4.9C103.2,15,101.4,17,99,17 M99,7.9
	c-2,0-3.4,1.7-3.4,4.2c0,2.5,1.4,4.2,3.4,4.2c2,0,3.4-1.7,3.4-4.2C102.4,9.6,101,7.9,99,7.9"/>
<path class="st0" d="M104.7,13.1V7.3h0.8V13c0,2.2,1.2,3.3,2.9,3.3c1.7,0,2.9-1,2.9-3.3V7.3h0.8v5.8c0,2.6-1.6,3.9-3.7,3.9
	C106.3,17,104.7,15.7,104.7,13.1"/>
<path class="st0" d="M115,12.6v4.2h-0.8V7.3h3.4c1.9,0,3,0.9,3,2.7c0,1.6-0.9,2.4-2.4,2.6l2.9,4.3h-0.9l-2.8-4.2H115z M115,11.9h2.6
	c1.5,0,2.3-0.7,2.3-2c0-1.3-0.8-2-2.3-2H115V11.9z"/>
<path class="st0" d="M125.9,7.3h2.9c2.8,0,4.6,1.9,4.6,4.8c0,2.9-1.9,4.8-4.6,4.8h-2.9V7.3z M128.8,16.1c2.4,0,3.8-1.6,3.8-4.1
	c0-2.4-1.5-4.1-3.8-4.1h-2.1v8.1H128.8z"/>
<polygon class="st0" points="141,7.3 141,8 135.9,8 135.9,11.6 140.5,11.6 140.5,12.3 135.9,12.3 135.9,16.1 141,16.1 141,16.9 
	135.1,16.9 135.1,7.3 "/>
<path class="st0" d="M143.8,12.7v4.1H143V7.3h3.5c1.9,0,3,0.9,3,2.7c0,1.8-1.2,2.7-3,2.7H143.8z M146.4,8h-2.6v4h2.6
	c1.5,0,2.3-0.7,2.3-2C148.7,8.8,147.9,8,146.4,8"/>
<path class="st0" d="M154.1,7.3l3.8,9.6h-0.8l-1.2-3.1h-4.2l-1.2,3.1h-0.8l3.8-9.6H154.1z M151.9,13h3.7l-1.8-4.7L151.9,13z"/>
<path class="st0" d="M160.1,12.6v4.2h-0.8V7.3h3.4c1.9,0,3,0.9,3,2.7c0,1.6-0.9,2.4-2.4,2.6l2.9,4.3h-0.9l-2.8-4.2H160.1z
	 M160.1,11.9h2.6c1.5,0,2.3-0.7,2.3-2c0-1.3-0.8-2-2.3-2h-2.6V11.9z"/>
<polygon class="st0" points="166.7,7.3 174.5,7.3 174.5,8 171,8 171,16.9 170.2,16.9 170.2,8 166.7,8 "/>
<polygon class="st0" points="180.3,16.9 176.9,8.9 176.9,16.9 176.1,16.9 176.1,7.3 177,7.3 180.6,15.7 184.2,7.3 185,7.3 185,16.9 
	184.2,16.9 184.2,8.9 180.8,16.9 "/>
<polygon class="st0" points="193.2,7.3 193.2,8 188.1,8 188.1,11.6 192.8,11.6 192.8,12.3 188.1,12.3 188.1,16.1 193.2,16.1 
	193.2,16.9 187.3,16.9 187.3,7.3 "/>
<polygon class="st0" points="202.3,16.9 201.8,16.9 195.9,8.5 195.9,16.9 195.2,16.9 195.2,7.3 195.9,7.3 201.6,15.3 201.6,7.3 
	202.3,7.3 "/>
<polygon class="st0" points="203.9,7.3 211.7,7.3 211.7,8 208.2,8 208.2,16.9 207.4,16.9 207.4,8 203.9,8 "/>
<path class="st0" d="M216.5,14.5c0.4,1.2,1.4,1.8,2.7,1.8c1.4,0,2.4-0.7,2.4-1.9c0-0.8-0.4-1.4-1.7-1.8l-1.8-0.5
	c-1.3-0.4-2.2-1-2.2-2.3c0-1.6,1.4-2.6,3-2.6c1.9,0,3,1,3.4,2.4h-0.8c-0.4-1-1.2-1.7-2.6-1.7c-1.2,0-2.3,0.7-2.3,1.8
	c0,1,0.7,1.4,1.8,1.7l1.6,0.5c1.6,0.4,2.3,1.2,2.3,2.5c0,1.7-1.4,2.7-3.2,2.7c-1.8,0-3.2-0.9-3.5-2.5H216.5z"/>
<polygon class="st0" points="223.2,7.3 231,7.3 231,8 227.5,8 227.5,16.9 226.7,16.9 226.7,8 223.2,8 "/>
<path class="st0" d="M235.7,17c-2.4,0-4.2-2-4.2-4.9c0-2.9,1.8-4.9,4.2-4.9c2.4,0,4.2,2,4.2,4.9C239.9,15,238.1,17,235.7,17
	 M235.7,7.9c-2,0-3.4,1.7-3.4,4.2c0,2.5,1.4,4.2,3.4,4.2c2,0,3.4-1.7,3.4-4.2C239.1,9.6,237.7,7.9,235.7,7.9"/>
<path class="st0" d="M242.4,12.6v4.2h-0.8V7.3h3.4c1.9,0,3,0.9,3,2.7c0,1.6-0.9,2.4-2.4,2.6l2.9,4.3h-0.9l-2.8-4.2H242.4z
	 M242.4,11.9h2.6c1.5,0,2.3-0.7,2.3-2c0-1.3-0.8-2-2.3-2h-2.6V11.9z"/>
<polygon class="st0" points="255.9,7.3 255.9,8 250.8,8 250.8,11.6 255.5,11.6 255.5,12.3 250.8,12.3 250.8,16.1 255.9,16.1 
	255.9,16.9 250,16.9 250,7.3 "/>
</svg>
