<svg id="Isolation_Mode" data-name="Isolation Mode" xmlns="http://www.w3.org/2000/svg" viewBox="0 0 173 31.09"><defs><style>.cls-1{fill:#fff;}</style></defs><path class="cls-1" d="M36.57,20.34q.26-2.25.56-4.79t.6-5.16q.3-2.61.6-5.16T38.9.43h6.74V30.66H40.75l.65-20.9-2.85,20.9h-4L31.73,9.5l.65,21.16H27.5V.43h6.74Z" transform="translate(-27.5)"/><path class="cls-1" d="M51.51.43h6.78l3.5,30.22H56.47L56,24.78H53.75l-.43,5.87H48Zm2.68,19.73h1.42l-.17-4.1q-.13-2.72-.24-5T55,6.39h-.13q-.09,2.33-.24,4.71t-.24,5Z" transform="translate(-27.5)"/><path class="cls-1" d="M69.42,12.91q.26-1.25.54-2.89t.54-3.37q.26-1.73.52-3.35T71.54.43h5.78l-4,15,4.23,15.24H71.84L69.42,17.57V30.66H64.16V.43h5.27Z" transform="translate(-27.5)"/><polygon class="cls-1" points="57.34 25.65 62 25.65 62 30.66 52.03 30.66 52.03 0.43 62 0.43 62 5.44 57.34 5.44 57.34 12.91 61.4 12.91 61.4 17.83 57.34 17.83 57.34 25.65"/><polygon class="cls-1" points="68.91 30.66 68.91 17.75 64.59 0.43 66.75 0.43 69.95 14.81 73.14 0.43 75.34 0.43 70.98 17.75 70.98 30.66 68.91 30.66"/><path class="cls-1" d="M110.15,0a6.3,6.3,0,0,1,2.37.39A3.55,3.55,0,0,1,114,1.47a4.32,4.32,0,0,1,.78,1.66A9,9,0,0,1,115,5.27V25.82A9,9,0,0,1,114.8,28a4.32,4.32,0,0,1-.78,1.66,3.54,3.54,0,0,1-1.49,1.08,7.44,7.44,0,0,1-4.75,0,3.52,3.52,0,0,1-1.49-1.08,4.3,4.3,0,0,1-.78-1.66,9,9,0,0,1-.24-2.14V5.27a9,9,0,0,1,.24-2.14,4.31,4.31,0,0,1,.78-1.66A3.53,3.53,0,0,1,107.78.39,6.29,6.29,0,0,1,110.15,0m0,29.23a2.4,2.4,0,0,0,2.22-1,4.64,4.64,0,0,0,.58-2.46V5.27a4.65,4.65,0,0,0-.58-2.46,3.08,3.08,0,0,0-4.45,0,4.65,4.65,0,0,0-.58,2.46V25.82a4.64,4.64,0,0,0,.58,2.46,2.4,2.4,0,0,0,2.22,1" transform="translate(-27.5)"/><path class="cls-1" d="M128.81.43v25.3a10.24,10.24,0,0,1-.22,2.16,4.3,4.3,0,0,1-.76,1.71,3.47,3.47,0,0,1-1.49,1.1,6.31,6.31,0,0,1-2.37.39,6.42,6.42,0,0,1-2.44-.39,3.48,3.48,0,0,1-1.47-1.1,4.07,4.07,0,0,1-.73-1.71,11.29,11.29,0,0,1-.19-2.16V.43h2.07v25.3a5.37,5.37,0,0,0,.52,2.5,3,3,0,0,0,4.49,0,5.39,5.39,0,0,0,.52-2.5V.43Z" transform="translate(-27.5)"/><path class="cls-1" d="M132.85.43h4.4a7.07,7.07,0,0,1,2.55.39,4,4,0,0,1,1.58,1.06,3.66,3.66,0,0,1,.8,1.64,9.85,9.85,0,0,1,.22,2.14v6.69a6.14,6.14,0,0,1-.86,3.32,4,4,0,0,1-2.85,1.73l5.05,13.26h-2.29q-1.17-3.28-2.37-6.56t-2.37-6.61h-1.77V30.66h-2.07Zm2.07,15.16h2.16a3.11,3.11,0,0,0,2.57-.86,3.79,3.79,0,0,0,.67-2.37V5.66a3.9,3.9,0,0,0-.65-2.35,3,3,0,0,0-2.55-.89h-2.2Z" transform="translate(-27.5)"/><polygon class="cls-1" points="117.96 0.43 123.27 0.43 123.27 25.65 127.07 25.65 127.07 30.66 117.96 30.66 117.96 0.43"/><path class="cls-1" d="M162.95,31.09a8.5,8.5,0,0,1-3-.45A4.89,4.89,0,0,1,158,29.4a4.48,4.48,0,0,1-1-1.83,8.37,8.37,0,0,1-.3-2.31V5.87a8.59,8.59,0,0,1,.3-2.33,4.48,4.48,0,0,1,1-1.86,4.9,4.9,0,0,1,1.9-1.23,10.16,10.16,0,0,1,6,0,4.91,4.91,0,0,1,1.9,1.23,4.5,4.5,0,0,1,1,1.86,8.59,8.59,0,0,1,.3,2.33V25.26a8.37,8.37,0,0,1-.3,2.31,4.49,4.49,0,0,1-1,1.83,4.9,4.9,0,0,1-1.9,1.23,8.52,8.52,0,0,1-3,.45m0-4.79q.91,0,.91-1.08V5.83a1.21,1.21,0,0,0-.22-.75,1,1,0,0,0-1.38,0,1.21,1.21,0,0,0-.22.75V25.22q0,1.08.91,1.08" transform="translate(-27.5)"/><path class="cls-1" d="M178.4,31.09a8.52,8.52,0,0,1-3-.45,4.9,4.9,0,0,1-1.9-1.23,4.48,4.48,0,0,1-1-1.83,8.37,8.37,0,0,1-.3-2.31V5.87a8.59,8.59,0,0,1,.3-2.33,4.48,4.48,0,0,1,1-1.86A4.91,4.91,0,0,1,175.4.45a10.16,10.16,0,0,1,6,0,4.91,4.91,0,0,1,1.9,1.23,4.5,4.5,0,0,1,1,1.86,8.59,8.59,0,0,1,.3,2.33V25.26a8.37,8.37,0,0,1-.3,2.31,4.49,4.49,0,0,1-1,1.83,4.9,4.9,0,0,1-1.9,1.23,8.51,8.51,0,0,1-3,.45m0-4.79q.91,0,.91-1.08V5.83a1.21,1.21,0,0,0-.22-.75,1,1,0,0,0-1.38,0,1.2,1.2,0,0,0-.22.75V25.22q0,1.08.91,1.08" transform="translate(-27.5)"/><path class="cls-1" d="M192.34,12.91q.26-1.25.54-2.89t.54-3.37q.26-1.73.52-3.35t.52-2.87h5.79l-4,15,4.23,15.24h-5.74l-2.42-13.08V30.66h-5.27V.43h5.27Z" transform="translate(-27.5)"/></svg>