<svg id="Layer_1" data-name="Layer 1" xmlns="http://www.w3.org/2000/svg" viewBox="0 0 167.96 64.77"><defs><style>.cls-1{fill:#fff;}</style></defs><path class="cls-1" d="M-159.44,90.13q.07,2.92.08,6.13v8.56h-2.31V78.32h2.35L-153.76,99q-.08-3.14-.15-6.06t-.08-6.06v-8.6h2.31v26.51H-154l-5.57-20.68Q-159.51,87.22-159.44,90.13Z" transform="translate(220.22 -78.32)"/><path class="cls-1" d="M-140.12,102.55H-135v2.27h-7.54V78.32H-135v2.31h-5.15v9.73h4.43v2.2h-4.43Z" transform="translate(220.22 -78.32)"/><path class="cls-1" d="M-118.8,83.09l-2.76,21.74h-2.76l-3.37-26.51h2.42l2.35,21.93,2.88-21.93h2.5l2.88,21.93,2.35-21.93h2.42l-3.37,26.51H-116Z" transform="translate(220.22 -78.32)"/><path class="cls-1" d="M-213.63,135.13h2.31v3.33a5.4,5.4,0,0,1-1,3.33q-1,1.29-3.46,1.29a5.94,5.94,0,0,1-2.18-.34,3.39,3.39,0,0,1-1.36-.95,3.5,3.5,0,0,1-.72-1.46,7.87,7.87,0,0,1-.21-1.87v-18a7.88,7.88,0,0,1,.21-1.87,3.67,3.67,0,0,1,.72-1.48,3.32,3.32,0,0,1,1.36-1,5.94,5.94,0,0,1,2.18-.34q2.5,0,3.46,1.31a5.49,5.49,0,0,1,1,3.35v2.92h-2.31v-2.92a3.11,3.11,0,0,0-.49-1.76,1.81,1.81,0,0,0-1.63-.74,1.78,1.78,0,0,0-1.65.7,3.36,3.36,0,0,0-.44,1.8v18a3.29,3.29,0,0,0,.45,1.76,1.76,1.76,0,0,0,1.63.74,1.81,1.81,0,0,0,1.67-.72,3.27,3.27,0,0,0,.45-1.78Z" transform="translate(220.22 -78.32)"/><path class="cls-1" d="M-198.75,115.81a6,6,0,0,1,2.16.34,3.3,3.3,0,0,1,1.38,1,3.68,3.68,0,0,1,.72,1.48,7.9,7.9,0,0,1,.21,1.88v18a7.9,7.9,0,0,1-.21,1.87,3.52,3.52,0,0,1-.72,1.46,3.38,3.38,0,0,1-1.38.95,6,6,0,0,1-2.16.34,5.94,5.94,0,0,1-2.18-.34,3.39,3.39,0,0,1-1.36-.95,3.5,3.5,0,0,1-.72-1.46,7.87,7.87,0,0,1-.21-1.87v-18a7.88,7.88,0,0,1,.21-1.87,3.67,3.67,0,0,1,.72-1.48,3.32,3.32,0,0,1,1.36-1A5.94,5.94,0,0,1-198.75,115.81Zm0,25.15a1.79,1.79,0,0,0,1.65-.7,3.37,3.37,0,0,0,.44-1.8v-18a3.37,3.37,0,0,0-.44-1.8,1.79,1.79,0,0,0-1.65-.7,1.78,1.78,0,0,0-1.65.7,3.36,3.36,0,0,0-.44,1.8v18a3.36,3.36,0,0,0,.44,1.8A1.78,1.78,0,0,0-198.75,141Z" transform="translate(220.22 -78.32)"/><path class="cls-1" d="M-185.38,116.19H-183v24.24h4.17v2.27h-6.55Z" transform="translate(220.22 -78.32)"/><path class="cls-1" d="M-171.07,116.19h2.39v24.24h4.17v2.27h-6.55Z" transform="translate(220.22 -78.32)"/><path class="cls-1" d="M-154.36,140.43h5.15v2.27h-7.54V116.19h7.54v2.31h-5.15v9.73h4.43v2.2h-4.43Z" transform="translate(220.22 -78.32)"/><path class="cls-1" d="M-134.59,135.13h2.31v3.33a5.4,5.4,0,0,1-1,3.33q-1,1.29-3.46,1.29a5.94,5.94,0,0,1-2.18-.34,3.39,3.39,0,0,1-1.36-.95,3.51,3.51,0,0,1-.72-1.46,7.9,7.9,0,0,1-.21-1.87v-18a7.9,7.9,0,0,1,.21-1.87,3.68,3.68,0,0,1,.72-1.48,3.31,3.31,0,0,1,1.36-1,5.94,5.94,0,0,1,2.18-.34q2.5,0,3.46,1.31a5.49,5.49,0,0,1,1,3.35v2.92h-2.31v-2.92a3.1,3.1,0,0,0-.49-1.76,1.81,1.81,0,0,0-1.63-.74,1.79,1.79,0,0,0-1.65.7,3.36,3.36,0,0,0-.44,1.8v18a3.29,3.29,0,0,0,.45,1.76,1.76,1.76,0,0,0,1.63.74,1.81,1.81,0,0,0,1.67-.72,3.27,3.27,0,0,0,.46-1.78Z" transform="translate(220.22 -78.32)"/><path class="cls-1" d="M-119.75,142.7h-2.39V118.5h-3.18v-2.31h8.71v2.31h-3.14Z" transform="translate(220.22 -78.32)"/><path class="cls-1" d="M-108.84,116.19h2.39V142.7h-2.39Z" transform="translate(220.22 -78.32)"/><path class="cls-1" d="M-93.09,115.81a6,6,0,0,1,2.16.34,3.3,3.3,0,0,1,1.38,1,3.69,3.69,0,0,1,.72,1.48,8,8,0,0,1,.21,1.88v18a8,8,0,0,1-.21,1.87,3.52,3.52,0,0,1-.72,1.46,3.37,3.37,0,0,1-1.38.95,6,6,0,0,1-2.16.34,5.94,5.94,0,0,1-2.18-.34,3.39,3.39,0,0,1-1.36-.95,3.51,3.51,0,0,1-.72-1.46,7.9,7.9,0,0,1-.21-1.87v-18a7.9,7.9,0,0,1,.21-1.87,3.68,3.68,0,0,1,.72-1.48,3.31,3.31,0,0,1,1.36-1A5.94,5.94,0,0,1-93.09,115.81Zm0,25.15a1.79,1.79,0,0,0,1.65-.7,3.36,3.36,0,0,0,.44-1.8v-18a3.37,3.37,0,0,0-.44-1.8,1.79,1.79,0,0,0-1.65-.7,1.79,1.79,0,0,0-1.65.7,3.36,3.36,0,0,0-.44,1.8v18a3.35,3.35,0,0,0,.44,1.8A1.79,1.79,0,0,0-93.09,141Z" transform="translate(220.22 -78.32)"/><path class="cls-1" d="M-77.48,128q.07,2.92.08,6.13v8.56h-2.31V116.19h2.35l5.57,20.72q-.08-3.14-.15-6.06t-.08-6.06v-8.6h2.31V142.7h-2.35L-77.64,122Q-77.56,125.09-77.48,128Z" transform="translate(220.22 -78.32)"/><path class="cls-1" d="M-54.65,135.2a8.17,8.17,0,0,0-.47-3.07,5.93,5.93,0,0,0-1.19-1.87A8.41,8.41,0,0,0-57.89,129a8.33,8.33,0,0,1-1.57-1.27,5.9,5.9,0,0,1-1.19-1.87,8.27,8.27,0,0,1-.47-3.11v-2.27a8.6,8.6,0,0,1,.19-1.87,3.61,3.61,0,0,1,.68-1.48,3.15,3.15,0,0,1,1.36-1,6.09,6.09,0,0,1,2.2-.34,6.09,6.09,0,0,1,2.2.34,3.16,3.16,0,0,1,1.36,1,3.64,3.64,0,0,1,.68,1.48,8.67,8.67,0,0,1,.19,1.88v2.92h-2.39v-2.92a3.53,3.53,0,0,0-.42-1.76,1.71,1.71,0,0,0-1.63-.74,1.73,1.73,0,0,0-1.65.7,3.63,3.63,0,0,0-.4,1.8v2.23a5.81,5.81,0,0,0,.47,2.58,5,5,0,0,0,1.19,1.57A13.57,13.57,0,0,0-55.5,128a7.12,7.12,0,0,1,1.57,1.4,7,7,0,0,1,1.19,2.18,10.88,10.88,0,0,1,.47,3.56v3.26a8.66,8.66,0,0,1-.19,1.87,3.64,3.64,0,0,1-.68,1.48,3.16,3.16,0,0,1-1.36,1,6.09,6.09,0,0,1-2.2.34,6.09,6.09,0,0,1-2.2-.34,3.15,3.15,0,0,1-1.36-1,3.61,3.61,0,0,1-.68-1.48,8.59,8.59,0,0,1-.19-1.87v-3.29h2.39v3.29a3.48,3.48,0,0,0,.44,1.8,1.71,1.71,0,0,0,1.61.74,1.71,1.71,0,0,0,1.65-.72,3.72,3.72,0,0,0,.4-1.82Z" transform="translate(220.22 -78.32)"/></svg>