<svg id="Layer_1" data-name="Layer 1" xmlns="http://www.w3.org/2000/svg" xmlns:xlink="http://www.w3.org/1999/xlink" viewBox="0 0 141.44 34.24"><defs><style>.cls-1{fill:none;}.cls-2{clip-path:url(#clip-path);}.cls-3{fill:#fff;}</style><clipPath id="clip-path" transform="translate(0 0)"><rect class="cls-1" width="141.44" height="34.24"/></clipPath></defs><g class="cls-2"><path class="cls-3" d="M15,.44H12.54V0h6V33.12h2.38v.44H15V28.81c-1.65,3.62-3.66,5.28-6.36,5.28C4,34.1,0,29.6,0,24.36a9.76,9.76,0,0,1,3.39-7.53,10,10,0,0,1,6.13-2.45c2.38,0,4.16,1.52,5.49,4.6Zm0,21.77,0-.73a7.41,7.41,0,0,0-1.24-4,5.22,5.22,0,0,0-4.57-2.79,4.14,4.14,0,0,0-2.93,1.13C4.71,17.71,3.89,21,3.89,25.53c0,5.28,1.69,8.22,4.8,8.22a6.11,6.11,0,0,0,5.08-3.28c.91-1.52.91-1.61,1.19-4.35,0-.59.09-1,.09-1.22Z" transform="translate(0 0)"/><path class="cls-3" d="M45.12,24.46c0,5.67-4.35,9.78-10.39,9.78A10,10,0,0,1,24.89,24a9.73,9.73,0,0,1,10-9.78A10,10,0,0,1,45.12,24.46m-15.05-6.8A14.15,14.15,0,0,0,29,24c0,6.41,2.06,9.88,5.95,9.88,4.07,0,6.31-3.38,6.31-9.49,0-6.31-2.24-9.93-6.13-9.93a5.7,5.7,0,0,0-5,3.18" transform="translate(0 0)"/><path class="cls-3" d="M49.15,33.12h2.47V15.41H49.1V15h6v4.16c1.14-3,3.25-4.55,6.18-4.55,3.29,0,5.4,1.86,6.08,5.43C68.73,16.49,71,14.63,74,14.63a5.84,5.84,0,0,1,5.35,3.23A10.37,10.37,0,0,1,80,22.06V33.12h2.29v.44H74.13v-.44h2.38V20.06A7.65,7.65,0,0,0,76.1,17a3,3,0,0,0-2.61-2c-1.78,0-3.84,1.47-5,3.57a7.55,7.55,0,0,0-1,4V33.12h2.42v.44H61.68v-.44H64V19.47c0-1.66-.14-2.45-.55-3A3.41,3.41,0,0,0,60.81,15a5.79,5.79,0,0,0-4.9,3.38,7.33,7.33,0,0,0-.78,3.77v11h2.47v.44H49.15Z" transform="translate(0 0)"/><path class="cls-3" d="M97.42,19.32c0-2.25-.32-3.13-1.33-3.81a4,4,0,0,0-2.2-.69C91.84,14.82,90,16,90,17.41a2.43,2.43,0,0,0,.5,1.37,3,3,0,0,1,.69,1.71,2,2,0,0,1-2,2c-1.24,0-2.15-1.13-2.15-2.69,0-2.94,3-5.23,6.73-5.23a7,7,0,0,1,6.27,3.28,13.09,13.09,0,0,1,.87,5.53l0,6.46a11.13,11.13,0,0,0,.09,2.1,2.16,2.16,0,0,0,2.15,1.76c.73,0,.87-.1,1.83-.88l.18-.15.23.29a3.79,3.79,0,0,1-3,1.27A4.66,4.66,0,0,1,97.51,30a5.88,5.88,0,0,1-6.09,4.26c-3.39,0-5.67-2-5.67-5,0-2.74,1.33-3.82,5.17-4.16,3.29-.29,5.4-1,6.5-2.1Zm0,4.21a11.71,11.71,0,0,1-4,1.76c-2.79.78-3.71,2-3.71,4.74,0,2.4,1,3.67,2.7,3.67a5.17,5.17,0,0,0,4.53-3.33,18.06,18.06,0,0,0,.5-2.93Z" transform="translate(0 0)"/><path class="cls-3" d="M108.77,33.12h2V15.41h-2.24V15h5.95v4a6.65,6.65,0,0,1,6.36-4.6A5.77,5.77,0,0,1,126,17c.64,1.17.92,2.84.92,6V33.12h2.33v.44H121v-.44h2.38V19.86c0-3.33-1.1-4.94-3.29-4.94-3.11,0-5.58,3.08-5.58,6.95V33.12h2.33v.44h-8.05Z" transform="translate(0 0)"/><path class="cls-3" d="M132.88,33.12h2.61V15.31H133v-.44h6.18V33.12h2.29v.44h-8.56ZM139.56,7a2.25,2.25,0,1,1-4.48,0,2.25,2.25,0,1,1,4.48,0" transform="translate(0 0)"/></g></svg>