<?xml version="1.0" encoding="utf-8"?>
<!-- Generator: Adobe Illustrator 19.2.1, SVG Export Plug-In . SVG Version: 6.00 Build 0)  -->
<svg version="1.1" id="Layer_1" xmlns="http://www.w3.org/2000/svg" xmlns:xlink="http://www.w3.org/1999/xlink" x="0px" y="0px"
	 viewBox="0 0 135.8 30" style="enable-background:new 0 0 135.8 30;" xml:space="preserve">
<style type="text/css">
	.st0{fill:#FFFFFF;}
</style>
<rect width="135.8" height="30"/>
<g>
	<g>
		<g>
			<path class="st0" d="M32.8,14.5c1.7,0,2.5,0.5,4.1,0.5c0.3,0,0.5,0,0.5,0.2c0.2,0.2-0.2,0.2-0.5,0.2c-1.6,0-2.3,0.3-4.1,0.5
				c-1.7,0-2.5-0.3-2.5-0.6C30.3,14.8,31.1,14.3,32.8,14.5z"/>
			<path class="st0" d="M50.8,14.5c-1.7,0-2.5,0.5-4.1,0.5c-0.3,0-0.5,0-0.5,0.2c-0.2,0.2,0,0.2,0.5,0.2c1.7,0.2,2.3,0.5,4.1,0.5
				c1.7,0.2,2.5-0.3,2.5-0.6C53.3,14.8,52.5,14.3,50.8,14.5z"/>
		</g>
		<g>
			<path class="st0" d="M33.3,17.9c1.6-0.6,2.3-0.6,3.9-1.1c0.3-0.2,0.5-0.2,0.5-0.2c0,0.2-0.2,0.2-0.5,0.3c-1.4,0.8-2,1.3-3.6,2
				c-1.6,0.8-2.5,0.6-2.5,0.5C31.1,19.1,31.7,18.5,33.3,17.9z"/>
			<path class="st0" d="M49.8,11c-1.6,0.6-2,1.3-3.6,2c-0.3,0.2-0.5,0.2-0.5,0.3c0,0.2,0.2,0,0.5-0.2c1.6-0.5,2.3-0.6,3.9-1.1
				c1.6-0.6,2.2-1.3,2-1.6C52.2,10.4,51.4,10.4,49.8,11z"/>
		</g>
		<g>
			<path class="st0" d="M35,20.9c1.3-1.1,2-1.4,3.3-2.5c0.3-0.2,0.3-0.3,0.5-0.3c0.2,0.2,0,0.2-0.3,0.5c-1.1,1.3-1.4,2-2.5,3.3
				s-2,1.6-2.2,1.4C33.4,22.9,33.7,22.1,35,20.9z"/>
			<path class="st0" d="M47.6,8.2c-1.1,1.3-1.4,2-2.5,3.3c-0.2,0.3-0.3,0.3-0.3,0.5c0.2,0.2,0.2,0,0.5-0.3c1.3-1.1,2-1.4,3.3-2.5
				c1.3-1.1,1.6-2,1.4-2.2C49.7,6.8,48.9,6.9,47.6,8.2z"/>
		</g>
		<g>
			<path class="st0" d="M37.8,23.1c0.6-1.6,1.3-2,2-3.6C40,19.2,40,19,40.1,19c0.2,0,0,0.2-0.2,0.5c-0.5,1.6-0.6,2.3-1.1,3.9
				c-0.6,1.6-1.3,2.2-1.6,2C37.2,25.6,37,24.6,37.8,23.1z"/>
			<path class="st0" d="M44.7,6.5c-0.6,1.6-0.6,2.3-1.1,3.9c-0.2,0.3-0.2,0.5-0.2,0.5c0.2,0,0.2-0.2,0.3-0.5c0.8-1.4,1.3-2,2-3.6
				c0.8-1.6,0.6-2.5,0.5-2.5C45.9,4.3,45.1,4.9,44.7,6.5z"/>
		</g>
		<g>
			<path class="st0" d="M41.1,24c0-1.7,0.5-2.5,0.5-4.1c0-0.3,0-0.5,0.2-0.5c0.2,0,0.2,0.2,0.2,0.5c0.2,1.7,0.5,2.3,0.5,4.1
				c0.2,1.7-0.3,2.5-0.6,2.5C41.5,26.5,41.1,25.7,41.1,24z"/>
			<path class="st0" d="M41.1,6c0,1.7,0.5,2.5,0.5,4.1c0,0.3,0,0.5,0.2,0.5c0.2,0,0.2-0.2,0.2-0.5c0.2-1.7,0.5-2.3,0.5-4.1
				c0.2-1.7-0.3-2.5-0.6-2.5C41.5,3.5,41.1,4.4,41.1,6z"/>
		</g>
		<g>
			<path class="st0" d="M44.7,23.5c-0.6-1.6-0.6-2.3-1.1-3.9c-0.2-0.3-0.2-0.5-0.2-0.5c0.2,0,0.2,0.2,0.3,0.5c0.8,1.4,1.3,2,2,3.6
				c0.8,1.6,0.6,2.5,0.5,2.5C45.9,25.7,45.1,25.1,44.7,23.5z"/>
			<path class="st0" d="M37.8,6.9c0.6,1.6,1.3,2,2,3.6C40,10.8,40,11,40.1,11c0.2,0,0-0.2-0.2-0.5c-0.4-1.5-0.5-2.3-1-3.9
				c-0.6-1.6-1.3-2.2-1.6-2C37.2,4.6,37,5.4,37.8,6.9z"/>
		</g>
		<g>
			<path class="st0" d="M47.6,21.8c-1.1-1.3-1.4-2-2.5-3.3c-0.2-0.3-0.3-0.3-0.3-0.5c0.2-0.2,0.2,0,0.5,0.3c1.3,1.1,2,1.4,3.3,2.5
				c1.3,1.1,1.6,2,1.4,2.2C49.7,23.4,48.9,23.1,47.6,21.8z"/>
			<path class="st0" d="M35,9.1c1.3,1.1,2,1.4,3.3,2.5c0.3,0.2,0.3,0.3,0.5,0.3c0.2-0.2,0-0.2-0.3-0.5c-1.1-1.3-1.4-2-2.5-3.3
				s-2-1.6-2.2-1.4C33.4,7.1,33.7,8,35,9.1z"/>
		</g>
		<g>
			<path class="st0" d="M49.8,19c-1.6-0.6-2-1.3-3.6-2c-0.3-0.2-0.5-0.2-0.5-0.3c0-0.2,0.2,0,0.5,0.2c1.6,0.5,2.3,0.6,3.9,1.1
				c1.6,0.6,2.2,1.3,2,1.6C52.2,19.6,51.4,19.8,49.8,19z"/>
			<path class="st0" d="M33.3,12.3c1.6,0.6,2.3,0.6,3.9,1.1c0.3,0.2,0.5,0.2,0.5,0.2c0-0.2-0.2-0.2-0.5-0.3
				c-1.4-0.9-1.9-1.4-3.4-2.2c-1.6-0.8-2.5-0.6-2.5-0.3C31.1,10.9,31.7,11.6,33.3,12.3z"/>
		</g>
	</g>
	<path class="st0" d="M110.7,23.1"/>
	<path class="st0" d="M114,23.1"/>
	<path class="st0" d="M70.2,17.7c0,0.9,0,1.7-0.3,2.5c-0.2,0.6-0.8,1.3-1.6,1.3c-0.6,0-1.4-0.3-1.4-1.4c0-1.4,0.9-1.9,3.3-2.8V17.7z
		 M73.5,19v-3.1c0-1.4-0.2-1.9-0.3-2.3c-0.9-1.4-2.8-1.9-4.2-1.9s-2.8,0.3-3.9,0.8c-0.2,0-0.3,0.3-0.3,0.5l0,0l0.5,0.9
		c0.2,0.2,0.3,0.3,0.5,0.3l0.3-0.2c0.6-0.2,1.3-0.5,2-0.5c0.9,0,1.7,0.3,1.9,0.8c0.3,0.3,0.3,0.6,0.3,1.1c-3.8,1.3-6.3,2.2-6.3,4.7
		c0,1.6,1.1,3.1,3.1,3.1c1.4,0,2.5-0.6,3.3-1.9v1.1v0.2c0.2,0.3,0.3,0.6,0.8,0.6h1.7c0.5,0,0.8-0.3,0.8-0.8
		C73.6,22.4,73.5,19.9,73.5,19z"/>
	<path class="st0" d="M104.9,11.6c-3,0-5.2,2.3-5.2,5.8c0,3.6,2,5.9,5.3,5.9c1.4,0,2.5-0.5,3.4-0.8l0,0c0.5-0.3,0.5-0.5,0.3-0.9
		c0-0.2-0.3-0.5-0.3-0.5c-0.3-0.5-0.5-0.5-0.9-0.3c-0.5,0.3-1.3,0.5-1.7,0.5c-1.9,0-2.7-1.7-2.7-3.9h5.8c0.5,0,0.6-0.2,0.6-0.6
		C109.6,15.2,109.1,11.6,104.9,11.6z M106.5,15.9h-3.1c0.2-1.3,0.6-2.5,1.7-2.5S106.5,14.8,106.5,15.9z"/>
	<path class="st0" d="M123.4,16.3l-0.9-0.6c-0.6-0.5-1.1-0.9-1.1-1.4s0.5-0.9,1.3-0.9c0.5,0,0.8,0,1.3,0.2s0.6,0,0.8-0.3
		c0.2-0.3,0.2-0.5,0.2-0.5c0.2-0.3,0.2-0.6-0.3-0.9c-1.1-0.3-1.9-0.5-2.3-0.5c-2.5,0-4.1,1.6-4.1,3.3c0,1.4,0.8,2.3,1.9,3.1l0.9,0.6
		c0.6,0.5,1.6,0.9,1.6,1.7s-0.8,1.1-1.3,1.1c-0.8,0-1.3-0.2-1.9-0.5c-0.5-0.2-0.8-0.2-0.9,0.3c0,0.2-0.2,0.5-0.2,0.5
		c-0.2,0.5-0.2,0.8,0.3,0.9h0.2c0.6,0.3,1.6,0.5,2.7,0.5c2.7,0,4.2-1.7,4.2-3.6C125.6,18.2,124.5,17.1,123.4,16.3z"/>
	<path class="st0" d="M81.9,12.4C81.9,12.4,81.9,12.3,81.9,12.4c0-0.5-0.2-0.6-0.3-0.6c-0.2,0-0.5,0-0.6,0c-1.4,0-2.5,1.6-3,3v-1.1
		v-1.1c0-0.5-0.3-0.6-0.6-0.6h-1.7c-0.5-0.2-0.6,0.2-0.6,0.6v10c0,0.5,0.3,0.8,0.8,0.8h1.9c0.3,0,0.8-0.2,0.8-0.8v-3.3
		c0-0.9,0-2.3,0.3-3.3c0.5-1.1,1.4-1.4,1.9-1.4c0.2,0,0.5,0,0.5,0c0.3,0,0.5-0.2,0.5-0.5L81.9,12.4z"/>
	<path class="st0" d="M98.7,15.9c0-0.6,0-1.9-0.5-2.7s-1.6-1.6-3-1.6c-1.7,0-2.5,0.9-3,2c-0.5-1.4-1.9-2-3.1-2c-1.6,0-2.5,0.8-3.1,2
		v-0.9l0,0c0-0.5-0.3-0.8-0.8-0.8h-1.7c-0.3-0.2-0.6,0.2-0.6,0.6v10c0,0.5,0.3,0.6,0.6,0.6h2c0.3,0,0.6-0.2,0.6-0.6v-4.9
		c0-1.1,0-3.6,1.7-3.6c1.3-0.2,1.3,1.3,1.3,2.2v6.3c0,0.5,0.3,0.6,0.8,0.6h1.9c0.3,0,0.6-0.3,0.6-0.6v-5c0-1.3,0-3.6,1.7-3.6
		c1.3,0,1.1,1.6,1.1,2.3v6.3c0,0.5,0.3,0.6,0.8,0.6h2c0.3,0,0.6-0.3,0.6-0.6L98.7,15.9L98.7,15.9z"/>
	<path class="st0" d="M117.7,12.4C117.7,12.4,117.7,12.3,117.7,12.4c0-0.5-0.2-0.6-0.3-0.6s-0.5,0-0.6,0c-1.4,0-2.5,1.6-3,3v-1.1
		v-1.1c0-0.5-0.3-0.6-0.6-0.6h-1.7c-0.5,0-0.6,0.3-0.6,0.6v10c0,0.5,0.3,0.8,0.6,0.8h1.9c0.3,0,0.8-0.2,0.8-0.8v-3.3
		c0-0.9,0-2.3,0.3-3.3c0.5-1.1,1.4-1.4,1.9-1.4c0.2,0,0.5,0,0.5,0c0.3,0,0.5-0.2,0.5-0.5L117.7,12.4z"/>
	<path class="st0" d="M56.6,8.2c0,0.2,0,14.2,0,14.4c0,0.5,0.3,0.6,0.6,0.6c0.8,0,2,0,2.3,0c0.5,0,0.6-0.2,0.6-0.6
		c0-0.3,0-6.7,0-6.7s3,0,3.1,0c0.5,0.2,0.8-0.2,0.8-0.6c0-0.3,0-0.8,0-0.9c0-0.3-0.2-0.6-0.6-0.6h-3.1c0,0,0-3.9,0-4.1
		c0-0.3,0.3-0.6,0.6-0.6c1.3,0,3.4,0,3.4,0c0.5,0,0.6-0.3,0.6-0.6s0.2-0.6,0.2-0.9c0-0.5-0.3-0.6-0.6-0.6c0,0-6.1,0-6.4,0
		C57,6.6,56.6,7.1,56.6,8.2z"/>
</g>
</svg>
