<svg id="Layer_1" data-name="Layer 1" xmlns="http://www.w3.org/2000/svg" viewBox="0 0 270.33 129.79"><defs><style>.cls-1{fill:#fff;}</style></defs><path class="cls-1" d="M300.58,273.48h4.75v52.82h-4.75Z" transform="translate(-300.58 -272.73)"/><path class="cls-1" d="M328.27,297q.15,5.81.15,12.22v17.05h-4.6V273.48h4.68l11.09,41.27q-.15-6.26-.3-12.07t-.15-12.07V273.48h4.6v52.82h-4.68L328,285.1Q328.12,291.21,328.27,297Z" transform="translate(-300.58 -272.73)"/><path class="cls-1" d="M373.77,311.36a16.22,16.22,0,0,0-.94-6.11,11.77,11.77,0,0,0-2.38-3.73,16.65,16.65,0,0,0-3.13-2.53,16.53,16.53,0,0,1-3.13-2.53,11.73,11.73,0,0,1-2.38-3.73,16.45,16.45,0,0,1-.94-6.19V282a17.14,17.14,0,0,1,.38-3.74,7.19,7.19,0,0,1,1.36-2.94,6.26,6.26,0,0,1,2.72-1.92,14.45,14.45,0,0,1,8.75,0,6.28,6.28,0,0,1,2.72,1.92,7.22,7.22,0,0,1,1.36,2.94,17.27,17.27,0,0,1,.38,3.74v5.81h-4.75V282a7,7,0,0,0-.83-3.51q-.83-1.47-3.24-1.47t-3.28,1.4a7.2,7.2,0,0,0-.79,3.58v4.45a11.6,11.6,0,0,0,.94,5.13,10,10,0,0,0,2.38,3.13,27.24,27.24,0,0,0,3.13,2.34,14.17,14.17,0,0,1,3.13,2.79,14,14,0,0,1,2.38,4.34,21.7,21.7,0,0,1,.94,7.09v6.49a17.27,17.27,0,0,1-.38,3.74,7.22,7.22,0,0,1-1.36,2.94,6.27,6.27,0,0,1-2.72,1.92,14.43,14.43,0,0,1-8.75,0,6.26,6.26,0,0,1-2.72-1.92,7.19,7.19,0,0,1-1.36-2.94,17.14,17.14,0,0,1-.38-3.74v-6.56h4.75v6.56a6.93,6.93,0,0,0,.87,3.58,3.4,3.4,0,0,0,3.21,1.47q2.49,0,3.28-1.43a7.42,7.42,0,0,0,.79-3.62Z" transform="translate(-300.58 -272.73)"/><path class="cls-1" d="M403.95,326.29h-4.75V278.08h-6.34v-4.6h17.35v4.6h-6.26Z" transform="translate(-300.58 -272.73)"/><path class="cls-1" d="M433.83,272.73a11.86,11.86,0,0,1,4.3.68,6.55,6.55,0,0,1,2.75,1.92,7.31,7.31,0,0,1,1.43,2.94,15.74,15.74,0,0,1,.42,3.74v35.84a15.74,15.74,0,0,1-.42,3.73,7,7,0,0,1-1.43,2.91,6.71,6.71,0,0,1-2.75,1.89,14.06,14.06,0,0,1-8.64,0,6.75,6.75,0,0,1-2.72-1.89,7,7,0,0,1-1.43-2.91,15.69,15.69,0,0,1-.42-3.73V282a15.69,15.69,0,0,1,.42-3.74,7.31,7.31,0,0,1,1.43-2.94,6.59,6.59,0,0,1,2.72-1.92A11.79,11.79,0,0,1,433.83,272.73Zm0,50.1q2.41,0,3.28-1.4a6.7,6.7,0,0,0,.87-3.58V282a6.7,6.7,0,0,0-.87-3.58q-.87-1.4-3.28-1.4t-3.28,1.4a6.69,6.69,0,0,0-.87,3.58v35.84a6.69,6.69,0,0,0,.87,3.58Q431.41,322.82,433.83,322.82Z" transform="translate(-300.58 -272.73)"/><path class="cls-1" d="M460.46,273.48h8.68a12.36,12.36,0,0,1,4.45.68,6.92,6.92,0,0,1,2.75,1.85,6.41,6.41,0,0,1,1.4,2.87,17.27,17.27,0,0,1,.38,3.74v11.92a11.3,11.3,0,0,1-1.32,5.7,6.49,6.49,0,0,1-4.64,3l8.53,23.09H475.4l-7.77-22.79h-2.41v22.79h-4.75Zm8.38,25.65q2.64,0,3.58-1.21a5.39,5.39,0,0,0,.94-3.4V282.61a5,5,0,0,0-1-3.36,4.47,4.47,0,0,0-3.51-1.17h-3.62v21.05Z" transform="translate(-300.58 -272.73)"/><path class="cls-1" d="M500.52,321.77h10.26v4.53h-15V273.48h15v4.6H500.52v19.39h8.83v4.38h-8.83Z" transform="translate(-300.58 -272.73)"/><path class="cls-1" d="M570.92,301.77h-4.3v16.15a3.83,3.83,0,0,0,1.13,2.94,4.35,4.35,0,0,0,3.09,1.06v4.38q-4.83,0-6.49-3a6.18,6.18,0,0,1-2.45,2.79,8.51,8.51,0,0,1-4.41,1q-5,0-6.83-2.38a10.51,10.51,0,0,1-1.85-6.6V307.28a11.48,11.48,0,0,1,.91-4.83,5.6,5.6,0,0,1,3.32-2.87,5.63,5.63,0,0,1-3.32-2.83,11.21,11.21,0,0,1-.91-4.79V282a15.74,15.74,0,0,1,.42-3.74,7.32,7.32,0,0,1,1.43-2.94,6.59,6.59,0,0,1,2.72-1.92,11.79,11.79,0,0,1,4.34-.68q5,0,6.9,2.6a11,11,0,0,1,1.92,6.68v5.81h-4.68V282a6.37,6.37,0,0,0-.94-3.51,3.52,3.52,0,0,0-3.21-1.47q-2.42,0-3.28,1.4a6.7,6.7,0,0,0-.87,3.58v10.79a5.47,5.47,0,0,0,1,3.36,4,4,0,0,0,3.4,1.32h13Zm-13.2,21.05a4.28,4.28,0,0,0,2.19-.49,3.4,3.4,0,0,0,1.28-1.32,5.08,5.08,0,0,0,.57-1.92,23.24,23.24,0,0,0,.11-2.38V301.77h-3.92a5.39,5.39,0,0,0-2.45.45,2.87,2.87,0,0,0-1.28,1.28,5.6,5.6,0,0,0-.53,2,24.1,24.1,0,0,0-.11,2.41v9a21.09,21.09,0,0,0,.11,2.26,5,5,0,0,0,.57,1.89,3.39,3.39,0,0,0,1.28,1.32A4.27,4.27,0,0,0,557.71,322.82Z" transform="translate(-300.58 -272.73)"/><path class="cls-1" d="M355.32,348.19a11.86,11.86,0,0,1,4.3.68,6.55,6.55,0,0,1,2.75,1.92,7.31,7.31,0,0,1,1.43,2.94,15.74,15.74,0,0,1,.42,3.74v35.84a15.74,15.74,0,0,1-.42,3.73,7,7,0,0,1-1.43,2.91,6.71,6.71,0,0,1-2.75,1.89,14.06,14.06,0,0,1-8.64,0,6.75,6.75,0,0,1-2.72-1.89,7,7,0,0,1-1.43-2.91,15.69,15.69,0,0,1-.42-3.73V357.47a15.69,15.69,0,0,1,.42-3.74,7.31,7.31,0,0,1,1.43-2.94,6.59,6.59,0,0,1,2.72-1.92A11.79,11.79,0,0,1,355.32,348.19Zm0,50.1q2.41,0,3.28-1.4a6.7,6.7,0,0,0,.87-3.58V357.47a6.7,6.7,0,0,0-.87-3.58q-.87-1.4-3.28-1.4t-3.28,1.4a6.69,6.69,0,0,0-.87,3.58v35.84a6.69,6.69,0,0,0,.87,3.58Q352.91,398.29,355.32,398.29Z" transform="translate(-300.58 -272.73)"/><path class="cls-1" d="M386.41,372.48q.15,5.81.15,12.22v17.05H382V348.94h4.68l11.09,41.27q-.15-6.26-.3-12.07t-.15-12.07V348.94h4.6v52.82H397.2l-11.09-41.2Q386.25,366.68,386.41,372.48Z" transform="translate(-300.58 -272.73)"/><path class="cls-1" d="M420.13,348.94h4.75v48.29h8.3v4.53H420.13Z" transform="translate(-300.58 -272.73)"/><path class="cls-1" d="M448.65,348.94h4.75v52.82h-4.75Z" transform="translate(-300.58 -272.73)"/><path class="cls-1" d="M476.34,372.48q.15,5.81.15,12.22v17.05h-4.6V348.94h4.68l11.09,41.27q-.15-6.26-.3-12.07t-.15-12.07V348.94h4.6v52.82h-4.68L476,360.56Q476.19,366.68,476.34,372.48Z" transform="translate(-300.58 -272.73)"/><path class="cls-1" d="M514.82,397.23h10.26v4.53h-15V348.94h15v4.6H514.82v19.39h8.83v4.38h-8.83Z" transform="translate(-300.58 -272.73)"/></svg>