<svg id="Layer_1" data-name="Layer 1" xmlns="http://www.w3.org/2000/svg" viewBox="0 0 207.4 39.82"><defs><style>.cls-1{fill:#fff;}</style></defs><polygon class="cls-1" points="61.4 30.98 61.4 39.6 68.23 39.6 68.23 38.76 62.51 38.76 62.51 35.57 67.65 35.57 67.65 34.73 62.51 34.73 62.51 31.82 67.99 31.82 67.99 30.98 61.4 30.98"/><path class="cls-1" d="M77.75,39.82a4.44,4.44,0,0,1-3.48-1.3l-.05-.06,1.05-.56,0,0a2.8,2.8,0,0,0,2.37,1C79,39,80,38.31,80,37.37S78.84,36,77.62,35.72c-1.45-.36-3.08-.78-3.08-2.56s1.79-2.39,3.45-2.39a3.86,3.86,0,0,1,2.93,1.09l.05.06-1,.55,0,0a2.55,2.55,0,0,0-2-.82c-1.07,0-2.32.41-2.32,1.55s1.19,1.45,2.45,1.75,3,.73,3,2.46-1.73,2.45-3.35,2.45" transform="translate(0 0)"/><polygon class="cls-1" points="90.42 39.6 89.31 39.6 89.31 31.82 85.7 31.82 85.7 30.98 94.03 30.98 94.03 31.82 90.42 31.82 90.42 39.6"/><path class="cls-1" d="M99.25,39.67A.65.65,0,1,1,100,39a.71.71,0,0,1-.78.64" transform="translate(0 0)"/><polygon class="cls-1" points="110.26 39.6 109.24 39.6 109.24 32.15 107.37 33.39 106.73 32.75 109.42 30.98 110.26 30.98 110.26 39.6"/><path class="cls-1" d="M119.87,39.6h-1.29L121.39,36a3.79,3.79,0,0,1-1.4.26c-1.88,0-3.3-1.15-3.3-2.68s1.48-2.7,3.53-2.7,3.53,1.13,3.53,2.7a3.72,3.72,0,0,1-.95,2.16l0,0Zm.34-8c-1.43,0-2.42.79-2.42,1.93a2.48,2.48,0,0,0,4.84,0c0-1.14-1-1.93-2.42-1.93" transform="translate(0 0)"/><path class="cls-1" d="M132,39.74c-2,0-3.53-1.13-3.53-2.7a3.71,3.71,0,0,1,.95-2.16l0,0L132.37,31h1.29l-2.81,3.64a3.79,3.79,0,0,1,1.4-.26c1.88,0,3.3,1.15,3.3,2.68s-1.48,2.7-3.53,2.7m0-4.63A2.22,2.22,0,0,0,129.61,37c0,1.14,1,1.93,2.42,1.93s2.42-.79,2.42-1.93A2.22,2.22,0,0,0,132,35.11" transform="translate(0 0)"/><polygon class="cls-1" points="142.4 39.6 141.26 39.6 145.55 31.75 140.51 31.75 140.51 30.98 146.64 30.98 146.63 31.72 142.4 39.6"/><path class="cls-1" d="M96.5,1c8.15-.16,11.15,1.12,11.59,5.26a5.65,5.65,0,0,1-5.89,6.52c2.1,2.6,7.66,9,7.72,9.07L110,22h-5.78l-7.17-9H91.86v9h-5V3.87a8.86,8.86,0,0,0-.62-2.78L86.17,1Zm-4.64,9.45H99c3.13,0,4.5-1.83,4.5-3.81,0-3.35-4.51-3.5-6.06-3.47H91.88Z" transform="translate(0 0)"/><path class="cls-1" d="M120.51,21.94h-5.34V4.53a8.07,8.07,0,0,0-.22-2.06L114.52.92H120v18a6.8,6.8,0,0,0,.6,2.9l.07.13Z" transform="translate(0 0)"/><path class="cls-1" d="M52.85,22H48.19V12.56H34.47V22H29.69V3.59a7.16,7.16,0,0,0-.61-2.53L29,.93h5.45V9.74H48.11V3.59a9.25,9.25,0,0,0-.49-2.47l0-.16h5.27Z" transform="translate(0 0)"/><path class="cls-1" d="M80.48,22H61.11V3.64a9.11,9.11,0,0,0-.62-2.55l0-.12h20V3.36H65.94V9.7H78.29V12.5H65.94v7.11H80.48Z" transform="translate(0 0)"/><path class="cls-1" d="M137.47.95l-7,0c-1.69,0-3.12,0-3.12,0l.4,1.4a8,8,0,0,1,.24,2.31v17.3h10.53c5.08,0,14.32-2,14.32-10.57S144.33.95,137.47.95m.73,18.83h-5.4V3.3s-.43,0,5.21,0c3.51,0,9.39,1.85,9.39,8.58,0,7-7.35,7.93-9.2,7.93" transform="translate(0 0)"/><path class="cls-1" d="M180,22H174.7l-3-5.58h-11L157.36,22H153.7l.08-.14c.09-.16,9.27-15.68,10.11-17.07a3.29,3.29,0,0,0,.1-2.88l-.51-1h4.36l0,0ZM161.79,14h8.77l-4.3-7.9Z" transform="translate(0 0)"/><path class="cls-1" d="M202.55,22,187.28,4.92V22h-3.09V4.73a5.63,5.63,0,0,0-.42-2.46L183.24.94h6.35L204.31,16.7V4.62A9.93,9.93,0,0,0,204,2l-.3-1.14h3.74V22Z" transform="translate(0 0)"/><path class="cls-1" d="M11.72,23.11c-5.08,0-9.21-1.56-11.63-4L0,19l4.3-2,0,.08c.79,1.56,3.49,3.8,7.53,3.8a8.58,8.58,0,0,0,6.45-2.53,3,3,0,0,0,.83-2.56c-.23-1-1.18-1.81-2.74-2.31a40.92,40.92,0,0,0-4.31-1,57.8,57.8,0,0,1-5.66-1.37c-2.11-.64-4.69-2-4.69-4.83C1.75,2.59,5.84,0,11.61,0c1.57,0,7,.23,10.74,3.14l.11.08-3.88,2.2,0-.07s-1-3.63-6.65-3.63c-3,0-4.66,1.42-5.38,2.76a2.3,2.3,0,0,0-.21,1.6c.21.75.74,1.14,1.79,1.49A51.65,51.65,0,0,0,13.82,9c1.06.23,2.16.46,3.34.74,5.3,1.28,6.47,4,6.47,6a6,6,0,0,1-2.75,4.93,15.78,15.78,0,0,1-9.16,2.44" transform="translate(0 0)"/></svg>