<!-- Generator: Adobe Illustrator 19.2.1, SVG Export Plug-In  -->
<svg version="1.1"
	 xmlns="http://www.w3.org/2000/svg" xmlns:xlink="http://www.w3.org/1999/xlink" xmlns:a="http://ns.adobe.com/AdobeSVGViewerExtensions/3.0/"
	 x="0px" y="0px" width="114px" height="30px" viewBox="0 0 114 30" style="enable-background:new 0 0 114 30;"
	 xml:space="preserve">
<style type="text/css">
	.st0{fill:#FFFFFF;}
</style>
<defs>
</defs>
<rect class="st0" width="114" height="30"/>
<g>
	<path d="M22.1,17c0.3,1,1.2,1.5,2.2,1.5c1.2,0,1.9-0.5,1.9-1.5c0-0.7-0.4-1.1-1.4-1.3l-1.7-0.4c-1.4-0.3-2.4-1.1-2.4-2.6
		c0-1.7,1.4-2.9,3.3-2.9c2.1,0,3.4,1.1,3.7,2.7H26c-0.3-0.7-0.9-1.3-2-1.3s-1.8,0.5-1.8,1.4c0,0.7,0.4,1.1,1.3,1.3l1.7,0.4
		c1.5,0.4,2.5,1.2,2.5,2.7c0,1.8-1.5,3-3.5,3c-2.1,0-3.6-1.1-3.9-2.9h1.8V17z"/>
	<path d="M37.7,9.9v9.8H36v-4.3h-4.9v4.3h-1.7V9.9h1.7v4H36v-4H37.7z"/>
	<path d="M43.9,19.9c-2.7,0-4.5-2.1-4.5-5.1c0-2.9,1.9-5.1,4.5-5.1c2.7,0,4.5,2.1,4.5,5.1C48.4,17.7,46.5,19.9,43.9,19.9z
		 M43.9,11.2c-1.7,0-2.8,1.5-2.8,3.6s1.1,3.6,2.8,3.6s2.9-1.5,2.9-3.6C46.7,12.7,45.6,11.2,43.9,11.2z"/>
	<path d="M51.7,16.1v3.7H50V9.9h3.8c2,0,3.4,1.1,3.4,3.1s-1.3,3.1-3.4,3.1H51.7z M53.8,11.3h-2.1v3.3h2.1c1.2,0,1.7-0.7,1.7-1.6
		C55.5,12,54.9,11.3,53.8,11.3z"/>
	<path d="M70.2,19.7h-1.3l-5-7.2v7.2h-1.6V9.9h1.6l4.7,6.8V9.9h1.6C70.2,9.9,70.2,19.7,70.2,19.7z"/>
	<path d="M76.3,19.9c-2.7,0-4.5-2.1-4.5-5.1c0-2.9,1.9-5.1,4.5-5.1s4.5,2.1,4.5,5.1C80.9,17.7,79,19.9,76.3,19.9z M76.3,11.2
		c-1.7,0-2.8,1.5-2.8,3.6s1.1,3.6,2.8,3.6s2.9-1.5,2.9-3.6C79.2,12.7,78,11.2,76.3,11.2z"/>
	<path d="M88.4,9.9l1.9,7.2L92,9.9h1.6l-2.5,9.8h-1.5l-1.9-7l-1.9,7h-1.5l-2.5-9.8h1.6l1.8,7.2l1.9-7.2C87.1,9.9,88.4,9.9,88.4,9.9z
		"/>
</g>
</svg>
