<!-- Generator: Adobe Illustrator 18.1.1, SVG Export Plug-In  -->
<svg version="1.1"
	 xmlns="http://www.w3.org/2000/svg" xmlns:xlink="http://www.w3.org/1999/xlink" xmlns:a="http://ns.adobe.com/AdobeSVGViewerExtensions/3.0/"
	 x="0px" y="0px" width="114px" height="30px" viewBox="0 0 114 30" enable-background="new 0 0 114 30" xml:space="preserve">
<defs>
</defs>
<rect x="0" y="0" width="114" height="30"/>
<g>
	<path fill="#FFFFFF" d="M22.1,17c0.3,1,1.2,1.5,2.2,1.5c1.2,0,1.9-0.5,1.9-1.5c0-0.7-0.4-1.1-1.4-1.3l-1.7-0.4
		c-1.4-0.3-2.4-1.1-2.4-2.6c0-1.7,1.4-2.9,3.3-2.9c2.1,0,3.4,1.1,3.7,2.7h-1.7c-0.3-0.7-0.9-1.3-2-1.3c-1.1,0-1.8,0.5-1.8,1.4
		c0,0.7,0.4,1.1,1.3,1.3l1.7,0.4c1.5,0.4,2.5,1.2,2.5,2.7c0,1.8-1.5,3-3.5,3c-2.1,0-3.6-1.1-3.9-2.9H22.1z"/>
	<path fill="#FFFFFF" d="M37.7,9.9v9.8h-1.7v-4.3h-4.9v4.3h-1.7V9.9h1.7v4h4.9v-4H37.7z"/>
	<path fill="#FFFFFF" d="M43.9,19.9c-2.7,0-4.5-2.1-4.5-5.1c0-2.9,1.9-5.1,4.5-5.1c2.7,0,4.5,2.1,4.5,5.1
		C48.4,17.7,46.5,19.9,43.9,19.9z M43.9,11.2c-1.7,0-2.8,1.5-2.8,3.6c0,2.1,1.1,3.6,2.8,3.6c1.7,0,2.9-1.5,2.9-3.6
		C46.7,12.7,45.6,11.2,43.9,11.2z"/>
	<path fill="#FFFFFF" d="M51.7,16.1v3.7H50V9.9h3.8c2,0,3.4,1.1,3.4,3.1c0,2-1.3,3.1-3.4,3.1H51.7z M53.8,11.3h-2.1v3.3h2.1
		c1.2,0,1.7-0.7,1.7-1.6C55.5,12,54.9,11.3,53.8,11.3z"/>
	<path fill="#FFFFFF" d="M70.2,19.7h-1.3l-5-7.2v7.2h-1.6V9.9h1.6l4.7,6.8V9.9h1.6V19.7z"/>
	<path fill="#FFFFFF" d="M76.3,19.9c-2.7,0-4.5-2.1-4.5-5.1c0-2.9,1.9-5.1,4.5-5.1s4.5,2.1,4.5,5.1C80.9,17.7,79,19.9,76.3,19.9z
		 M76.3,11.2c-1.7,0-2.8,1.5-2.8,3.6c0,2.1,1.1,3.6,2.8,3.6s2.9-1.5,2.9-3.6C79.2,12.7,78,11.2,76.3,11.2z"/>
	<path fill="#FFFFFF" d="M88.4,9.9l1.9,7.2L92,9.9h1.6l-2.5,9.8h-1.5l-1.9-7l-1.9,7h-1.5l-2.5-9.8h1.6l1.8,7.2l1.9-7.2H88.4z"/>
</g>
</svg>
